PathFileType	4	(X/Y/Z)	C:\ABL_Data\ExoAging\Piloting\Dec 6 2019\Generated_files\static_1.trc
DataRate	CameraRate	NumFrames	NumMarkers	Units	OrigDataRate	OrigDataStartFrame	OrigNumFrames
100.00	100.00	       6	20	mm	100.00	68	       539
Frame#	Time	R.Acromium			L.Acromium			Sternum			R.ASIS			R.PSIS			S2			L.PSIS			L.ASIS			R.Knee			R.Ankle			L.Knee			L.Ankle			R.MKnee			R.MAnkle			L.MKnee			L.MAnkle			C7			T12			Clav			R.Back			
		X1	Y1	Z1	X2	Y2	Z2	X3	Y3	Z3	X4	Y4	Z4	X5	Y5	Z5	X6	Y6	Z6	X7	Y7	Z7	X8	Y8	Z8	X9	Y9	Z9	X10	Y10	Z10	X11	Y11	Z11	X12	Y12	Z12	X13	Y13	Z13	X14	Y14	Z14	X15	Y15	Z15	X16	Y16	Z16	X17	Y17	Z17	X18	Y18	Z18	X19	Y19	Z19	X20	Y20	Z20	

68	0.670	775.24792	362.91602	1491.12488	789.04156	766.96423	1482.94116				855.15839	424.00552	1006.34485	671.50293	506.53867	1043.10815	655.28436	558.96332	1019.40564	677.04138	609.18445	1046.88940	864.40381	684.27332	1017.98126	759.01965	361.92365	513.08740	693.55994	359.47357	87.80258	759.12933	740.80121	509.81128	701.40240	751.47314	80.20397	782.79205	475.32248	489.94110	739.42389	439.59058	92.91742	769.15570	628.05811	487.43823	717.72461	661.45850	94.10968	698.02112	550.89655	1556.13477	674.15112	560.16541	1186.05347	856.97040	555.69122	1457.38379	629.28748	438.57327	1394.29846	
69	0.680	775.20477	362.87531	1491.08667	788.99158	766.94043	1482.97937				855.12262	424.00418	1006.37445	671.49542	506.52524	1043.11023	655.23743	558.93823	1019.41083	676.98041	609.20929	1046.89307	864.36511	684.25372	1017.94360	758.98077	361.95874	513.11438	693.58301	359.48004	87.79252	759.09338	740.74823	509.80731	701.43042	751.47729	80.23769	782.78436	475.30472	489.96097	739.43079	439.57272	92.91224	769.08807	627.99377	487.42233	717.74896	661.44507	94.09212	697.97748	550.81146	1556.13159	674.09821	560.16382	1186.04907	856.90997	555.66101	1457.38525	629.22217	438.56201	1394.28406	
70	0.690	775.17572	362.85001	1491.08093	788.92670	766.94702	1482.97339				855.06335	424.04083	1006.34039	671.46082	506.54617	1043.10120	655.17438	558.95294	1019.40961	676.96283	609.22705	1046.88525	864.29956	684.31097	1017.97327	758.96429	361.92792	513.09021	693.59918	359.41602	87.82437	759.07281	740.79419	509.79980	701.37885	751.48828	80.25143	782.76758	475.30783	489.99484	739.38953	439.58591	92.93536	769.07550	628.05151	487.41183	717.73077	661.44366	94.08187	697.92114	550.81219	1556.14038	674.03888	560.15063	1186.03137	856.85559	555.71454	1457.35461	629.22809	438.54202	1394.26465	
71	0.700	775.10559	362.80054	1491.08118	788.87878	766.92053	1482.96240				854.99841	424.00751	1006.37354	671.43054	506.53024	1043.07275	655.13757	558.97681	1019.39764	676.91486	609.21899	1046.87988	864.20905	684.31366	1017.95343	758.93408	361.93359	513.07916	693.54675	359.48230	87.78026	759.03833	740.80951	509.77521	701.37573	751.51740	80.21970	782.69519	475.31604	489.95367	739.39099	439.59259	92.90955	768.97302	628.06268	487.41843	717.68860	661.42816	94.09133	697.84644	550.82324	1556.13489	673.94757	560.18365	1186.05542	856.80646	555.66974	1457.32690	629.14191	438.57483	1394.27136	
72	0.710	775.10101	362.83334	1491.08508	788.83551	766.90637	1482.95630				854.91504	424.04510	1006.32593	671.38147	506.53580	1043.06152	655.08734	558.97876	1019.39130	676.87213	609.17938	1046.90088	864.17145	684.32678	1017.97833	758.94037	361.97040	513.08130	693.56830	359.49835	87.78641	758.99792	740.83374	509.81799	701.36877	751.51563	80.21307	782.48303	474.74136	489.75421	739.40283	439.59775	92.93259	768.98480	628.10620	487.36823	717.69586	661.44965	94.10603	697.82117	550.82965	1556.13965	673.93024	560.18427	1186.03760	856.75732	555.65924	1457.32935	629.08551	438.55182	1394.25891	
73	0.720	775.03503	362.79965	1491.06628	788.79749	766.88385	1482.94800				854.87024	424.04196	1006.35272	671.33063	506.53317	1043.06433	654.99084	559.02795	1019.39685	676.82684	609.22540	1046.89258	864.13440	684.34485	1017.99481	758.90784	361.94681	513.08368	693.53815	359.49326	87.77760	758.96179	740.81598	509.81174	701.36810	751.50323	80.18235	782.41516	474.73151	489.76727	739.37994	439.59573	92.91371	768.97827	628.01361	487.41745	717.69965	661.45795	94.09094	697.76428	550.81360	1556.14270	673.88135	560.19049	1186.02905	856.71051	555.60516	1457.32385	629.04199	438.57919	1394.25378	
